<?xml version="1.0" standalone="no"?>
<!DOCTYPE svg PUBLIC "-//W3C//DTD SVG 20010904//EN"
 "http://www.w3.org/TR/2001/REC-SVG-20010904/DTD/svg10.dtd">
<svg version="1.0" xmlns="http://www.w3.org/2000/svg"
 width="290.000000pt" height="301.000000pt" viewBox="0 0 290.000000 301.000000"
 preserveAspectRatio="xMidYMid meet">

<g transform="translate(0.000000,301.000000) scale(0.100000,-0.100000)"
fill="#000000" stroke="none">
<path d="M1114 2955 c-104 -19 -176 -41 -306 -96 -135 -56 -188 -87 -314 -180
-208 -155 -322 -306 -376 -496 -29 -103 -29 -240 0 -337 l20 -69 -21 -29 c-57
-76 16 -294 113 -337 28 -13 51 -35 78 -77 46 -69 129 -149 176 -169 31 -13
34 -18 39 -69 3 -31 12 -68 21 -83 8 -15 20 -53 26 -84 33 -172 168 -329 316
-368 33 -9 66 -35 155 -124 165 -163 255 -204 507 -228 110 -11 118 -13 181
-53 99 -63 164 -87 252 -93 76 -6 78 -5 108 25 47 47 42 68 -41 164 l-49 57
88 44 c173 87 341 224 415 339 26 41 42 54 107 84 153 70 252 215 197 289 -19
26 -75 23 -136 -7 l-48 -24 5 32 c9 53 -16 194 -49 271 -16 40 -49 102 -72
139 l-43 66 68 36 c38 19 96 60 129 91 70 66 78 100 34 142 -23 22 -34 24
-112 24 -79 0 -96 -4 -191 -42 -57 -24 -107 -43 -112 -43 -5 0 -9 11 -9 25 0
33 -22 86 -43 104 -10 7 -17 26 -17 40 0 54 -42 189 -105 335 -49 114 -61 154
-55 171 11 30 -2 85 -33 137 -38 66 -71 92 -116 92 -32 1 -48 10 -102 60 -115
107 -284 203 -413 236 -89 23 -168 24 -272 5z m304 -37 c96 -33 246 -119 332
-191 95 -79 192 -200 257 -319 70 -127 159 -357 174 -448 11 -71 11 -77 -11
-120 -74 -147 -251 -335 -420 -448 -183 -122 -446 -234 -655 -277 -96 -20
-275 -23 -365 -6 -65 13 -195 58 -258 89 -42 21 -110 93 -146 154 l-27 46 22
42 c18 35 21 52 16 107 -7 71 -39 150 -81 201 -21 24 -36 32 -61 32 -33 0 -33
1 -54 78 -39 145 -22 302 46 440 152 308 578 586 988 646 59 9 177 -4 243 -26z
m535 -308 c33 -26 77 -115 77 -154 -1 -30 -2 -29 -35 24 -19 30 -39 61 -45 68
-6 6 -7 12 -3 12 4 0 -3 7 -15 16 -12 8 -27 24 -32 35 -9 16 -7 19 8 19 11 0
31 -9 45 -20z m284 -791 c7 -19 12 -50 12 -69 0 -33 0 -34 -15 -15 -8 11 -12
26 -9 33 7 20 -6 37 -16 21 -6 -11 -11 -11 -20 -2 -9 9 -9 19 1 43 16 38 31
34 47 -11z m442 -23 c33 -30 25 -56 -29 -107 -37 -34 -60 -48 -90 -52 -22 -3
-60 -15 -85 -27 l-45 -22 -58 54 c-32 29 -55 55 -50 56 19 8 6 19 -17 14 -68
-13 10 29 150 80 95 34 189 36 224 4z m-469 -46 c27 -38 28 -58 5 -93 l-18
-28 -13 29 c-6 16 -22 36 -34 45 -21 14 -21 16 -6 46 21 39 39 39 66 1z
m-2014 -32 c10 -12 13 -18 7 -14 -17 10 -16 6 7 -45 11 -24 19 -51 19 -59 0
-8 -6 -1 -13 15 -19 44 -42 61 -61 45 -11 -9 -14 -23 -9 -49 18 -100 81 -138
85 -51 0 20 3 16 13 -15 8 -26 14 -35 18 -25 4 8 7 -9 7 -37 1 -40 -3 -53 -13
-53 -47 0 -125 129 -134 221 -7 79 32 115 74 67z m39 12 c3 -5 1 -10 -4 -10
-6 0 -11 5 -11 10 0 6 2 10 4 10 3 0 8 -4 11 -10z m1913 -42 c33 -36 43 -72
26 -96 -13 -19 -15 -19 -54 20 l-40 40 17 29 c21 35 24 35 51 7z m172 -34 c97
-77 205 -232 252 -360 30 -82 36 -246 13 -349 -45 -202 -193 -387 -418 -521
-116 -68 -306 -152 -401 -176 -156 -40 -417 -6 -546 70 -35 20 -103 77 -152
127 l-90 89 77 13 c94 16 203 70 246 122 23 28 29 45 29 83 0 79 -44 107 -148
93 -32 -4 -101 -9 -155 -11 -53 -2 -97 -7 -97 -11 0 -14 122 -15 223 -2 93 12
99 11 125 -8 31 -23 39 -62 21 -105 -14 -33 -105 -99 -166 -119 -32 -10 -37
-9 -61 14 -51 48 -153 57 -225 20 -25 -13 -31 -12 -52 1 -86 57 -161 163 -191
274 -10 34 -15 64 -13 67 3 2 41 -8 84 -22 68 -22 103 -27 230 -30 136 -5 161
-3 269 22 199 45 397 124 559 223 37 23 70 42 73 42 14 0 53 -59 58 -90 9 -52
29 -74 55 -61 11 6 25 20 31 31 8 15 4 23 -21 42 -40 29 -99 87 -99 96 0 4 26
25 57 47 92 65 252 233 318 333 33 51 62 92 65 92 3 0 25 -16 50 -36z m-2049
13 c-1 -12 -15 -9 -19 4 -3 6 1 10 8 8 6 -3 11 -8 11 -12z m-76 -83 l5 -39
-14 35 c-18 43 -20 68 -6 54 6 -6 13 -28 15 -50z m95 46 c0 -5 -4 -10 -10 -10
-5 0 -10 5 -10 10 0 6 5 10 10 10 6 0 10 -4 10 -10z m1832 -34 c24 -28 22 -46
-6 -81 l-24 -30 -15 36 c-8 20 -25 44 -38 52 l-23 17 23 24 c20 21 27 23 45
14 11 -5 29 -20 38 -32z m-1822 4 c0 -5 -4 -10 -10 -10 -5 0 -10 5 -10 10 0 6
5 10 10 10 6 0 10 -4 10 -10z m10 -28 c0 -13 -12 -22 -22 -16 -10 6 -1 24 13
24 5 0 9 -4 9 -8z m1739 -28 c24 -31 27 -76 7 -93 -12 -10 -17 -5 -27 29 -7
23 -21 47 -30 53 -13 8 -15 15 -7 24 16 20 35 16 57 -13z m-1739 -14 c0 -5 -4
-10 -10 -10 -5 0 -10 5 -10 10 0 6 5 10 10 10 6 0 10 -4 10 -10z m1690 -35
c27 -72 27 -73 -43 -140 -88 -85 -253 -194 -402 -266 -99 -48 -131 -59 -172
-59 -63 0 -86 21 -81 76 3 37 4 38 83 69 184 72 383 188 513 299 61 52 88 58
102 21z m-1410 -420 c0 -24 3 -51 7 -60 5 -15 3 -16 -14 -6 -13 7 -25 29 -33
60 -14 58 -8 76 21 61 14 -8 19 -21 19 -55z m687 31 c-1 -42 18 -81 47 -93 19
-9 18 -11 -18 -23 -36 -11 -40 -11 -63 12 -15 15 -27 41 -30 66 -5 40 -4 43
28 57 19 8 35 14 36 15 0 0 1 -16 0 -34z m647 -18 c-4 -6 -10 -5 -15 3 -14 22
-10 33 6 19 8 -7 12 -17 9 -22z m-1278 16 c17 -4 21 -13 21 -42 -1 -20 2 -50
6 -65 7 -26 6 -28 -15 -22 -23 7 -48 31 -48 47 0 4 6 5 14 2 11 -4 13 0 9 15
-3 12 -11 17 -19 14 -15 -5 -18 14 -8 41 7 18 9 18 40 10z m554 -28 c0 -19 10
-49 24 -69 l24 -36 -38 -6 c-49 -8 -58 -3 -82 52 -29 65 -16 86 55 92 13 1 17
-7 17 -33z m-444 4 c9 0 14 -12 14 -37 0 -21 7 -51 15 -67 9 -16 14 -31 11
-33 -2 -2 -24 1 -49 8 -50 12 -67 39 -67 107 0 33 1 34 31 28 17 -3 38 -6 45
-6z m344 -13 c0 -13 10 -44 23 -70 l24 -46 -21 -5 c-42 -11 -55 -5 -85 41 -40
60 -41 90 -3 96 58 9 62 8 62 -16z m-67 -90 c14 -19 23 -37 20 -41 -4 -3 -28
-6 -54 -6 -41 0 -51 4 -65 25 -9 14 -19 45 -21 70 l-5 44 43 3 c42 3 44 2 50
-29 3 -17 17 -47 32 -66z m-139 52 c4 -23 13 -54 22 -70 l15 -29 -40 0 c-22 0
-47 3 -56 6 -23 9 -45 57 -45 99 l0 35 49 0 48 0 7 -41z m1899 10 c5 -9 7 -28
3 -43 -6 -26 -8 -27 -29 -13 -25 16 -48 57 -40 70 8 13 55 4 66 -14z m-41 -77
c23 -15 25 -19 12 -36 -13 -18 -15 -18 -32 -2 -28 24 -56 92 -48 113 6 15 10
11 24 -20 9 -21 29 -45 44 -55z m-42 -33 c31 -39 30 -55 -1 -38 -22 11 -59 79
-59 107 0 34 15 34 23 0 5 -18 21 -49 37 -69z m-60 19 c12 -24 31 -53 41 -64
18 -20 19 -22 3 -28 -20 -8 -40 8 -60 45 -13 25 -20 89 -10 89 2 0 14 -19 26
-42z m2 -121 c-19 -12 -52 21 -52 52 l0 25 33 -34 c24 -27 29 -37 19 -43z
m-37 -25 c-9 -9 -35 8 -35 24 0 16 2 16 20 -1 11 -10 18 -20 15 -23z m-1712
-202 c-3 -11 -7 -20 -9 -20 -2 0 -4 9 -4 20 0 11 4 20 9 20 5 0 7 -9 4 -20z
m37 -6 c0 -14 -4 -23 -10 -19 -5 3 -10 15 -10 26 0 10 5 19 10 19 6 0 10 -12
10 -26z m40 1 c0 -16 -6 -25 -15 -25 -15 0 -21 31 -8 43 13 14 23 6 23 -18z
m30 -5 c0 -11 -4 -20 -10 -20 -5 0 -10 9 -10 20 0 11 5 20 10 20 6 0 10 -9 10
-20z m50 -5 c10 -12 9 -15 -8 -15 -11 0 -22 7 -26 15 -3 9 0 15 8 15 7 0 19
-7 26 -15z m925 -294 c3 -6 -16 -19 -42 -31 -59 -26 -80 -45 -104 -92 -13 -25
-24 -35 -34 -32 -23 9 -18 27 18 67 24 28 115 84 154 96 1 1 4 -3 8 -8z m35
-41 c0 -5 -10 -12 -22 -15 -39 -12 -90 -56 -104 -91 -15 -37 -15 -37 -37 -28
-12 4 -13 11 -6 32 18 50 59 87 116 107 38 13 53 12 53 -5z m-225 -49 c-17
-34 -31 -45 -39 -32 -12 19 16 52 52 60 1 1 -4 -12 -13 -28z m254 15 c9 -11 5
-16 -19 -26 -29 -12 -83 -65 -92 -90 -2 -6 -11 -8 -21 -4 -36 14 6 87 66 115
51 22 52 23 66 5z m-309 -16 c0 -5 -7 -10 -15 -10 -8 0 -15 5 -15 10 0 6 7 10
15 10 8 0 15 -4 15 -10z m348 -52 c2 -18 -5 -32 -24 -47 -25 -20 -73 -28 -87
-15 -12 13 25 66 56 79 41 18 51 15 55 -17z"/>
<path d="M1146 2891 c-3 -4 6 -6 19 -3 14 2 25 6 25 8 0 8 -39 4 -44 -5z"/>
<path d="M1168 2863 c7 -3 16 -2 19 1 4 3 -2 6 -13 5 -11 0 -14 -3 -6 -6z"/>
<path d="M1185 2830 c-3 -5 -1 -10 4 -10 6 0 11 5 11 10 0 6 -2 10 -4 10 -3 0
-8 -4 -11 -10z"/>
<path d="M1305 2750 c-184 -41 -420 -156 -688 -334 -127 -85 -314 -262 -350
-331 -14 -28 -13 -33 15 -89 35 -70 101 -236 95 -242 -2 -2 -25 50 -51 116
-26 66 -52 123 -57 126 -6 3 -3 -11 6 -33 37 -85 145 -384 174 -483 41 -136
42 -138 48 -123 3 7 -7 49 -22 94 -15 44 -25 82 -23 85 4 3 38 -102 77 -236 7
-22 15 -26 67 -31 114 -13 188 -9 313 17 174 36 438 117 546 168 105 49 256
150 369 245 74 62 247 259 268 307 22 48 -44 200 -151 348 -130 179 -270 307
-415 377 -89 44 -107 45 -221 19z m223 -46 c84 -41 200 -131 272 -211 27 -31
49 -58 47 -59 -1 -1 -27 6 -57 16 -30 11 -70 19 -89 20 -22 0 -55 14 -100 43
-36 24 -80 49 -97 56 -21 8 -37 25 -50 52 -28 63 -66 89 -129 89 -46 0 -59 -5
-89 -31 -19 -17 -41 -45 -47 -64 -9 -25 -21 -35 -48 -44 -69 -20 -226 -103
-335 -176 -119 -80 -155 -111 -226 -192 l-45 -52 -44 15 c-61 21 -105 6 -131
-46 -33 -65 -23 -120 32 -177 30 -31 31 -33 18 -77 -14 -51 -25 -58 -36 -23
-3 12 -26 66 -51 120 l-44 97 20 33 c27 45 189 200 273 262 89 66 301 194 425
255 172 85 372 146 438 133 11 -2 53 -20 93 -39z m-139 -41 c17 -16 38 -44 49
-63 13 -25 37 -44 88 -70 l69 -35 -45 -2 c-313 -18 -590 -148 -854 -404 -162
-156 -188 -202 -194 -344 -2 -55 1 -132 7 -171 9 -62 47 -206 66 -256 4 -10 3
-18 -4 -18 -5 0 -15 19 -22 43 -6 23 -40 129 -76 235 l-65 193 21 61 c27 79
26 89 -5 119 -53 49 -67 105 -39 159 19 38 60 46 115 24 l44 -18 25 35 c54 71
107 122 185 178 128 92 253 162 355 201 83 31 96 39 102 64 23 85 120 122 178
69z m150 -231 c-57 -36 -96 -83 -127 -152 -35 -76 -37 -193 -4 -264 33 -72 82
-127 143 -161 47 -26 64 -30 134 -30 62 0 91 5 130 23 63 29 129 93 162 156
24 47 26 49 40 30 36 -48 35 -49 -31 -131 -92 -114 -209 -220 -347 -313 -144
-98 -218 -133 -405 -193 -208 -67 -402 -107 -518 -107 l-95 0 -21 57 c-47 127
-64 222 -65 363 0 131 1 137 29 187 35 64 191 223 298 303 149 113 306 191
456 229 94 24 119 28 201 30 l65 1 -45 -28z m275 -16 c229 -106 232 -422 5
-535 -189 -94 -397 30 -407 244 -7 143 79 274 208 316 40 14 139 1 194 -25z
m222 -263 c25 -59 43 -132 34 -138 -18 -11 -60 80 -60 128 0 26 2 47 5 47 3 0
12 -17 21 -37z m-1626 -478 c0 -5 -5 -3 -10 5 -5 8 -10 20 -10 25 0 6 5 3 10
-5 5 -8 10 -19 10 -25z"/>
<path d="M1350 2673 c0 -4 8 -16 19 -27 10 -12 23 -34 29 -51 9 -27 11 -27 11
-7 1 27 -27 79 -46 86 -7 3 -13 2 -13 -1z"/>
<path d="M1445 2540 c3 -5 8 -10 11 -10 2 0 4 5 4 10 0 6 -5 10 -11 10 -5 0
-7 -4 -4 -10z"/>
<path d="M750 2295 c-57 -37 -106 -82 -98 -90 4 -5 27 10 50 31 24 21 54 46
68 55 14 9 23 19 20 22 -3 2 -21 -6 -40 -18z"/>
<path d="M450 2120 c0 -5 7 -10 16 -10 8 0 12 5 9 10 -3 6 -10 10 -16 10 -5 0
-9 -4 -9 -10z"/>
<path d="M476 1818 c-9 -35 -7 -98 3 -98 5 0 11 27 13 60 3 61 -5 79 -16 38z"/>
<path d="M822 2019 c-57 -11 -102 -40 -151 -96 -117 -133 -112 -340 12 -461
66 -64 119 -86 202 -86 93 0 167 30 229 91 105 103 132 239 73 367 -33 72 -67
108 -134 143 -47 26 -158 57 -182 52 -3 -1 -25 -5 -49 -10z m174 -40 c66 -25
136 -85 167 -144 33 -61 31 -202 -3 -268 -54 -106 -171 -173 -285 -164 -103 8
-180 62 -233 162 -57 108 -25 269 72 364 74 73 174 90 282 50z"/>
<path d="M814 1714 c-9 -34 6 -58 38 -62 31 -4 50 19 46 55 -3 24 -8 28 -40
31 -33 3 -38 0 -44 -24z"/>
<path d="M1302 1843 c-24 -20 -52 -89 -59 -145 -4 -31 -1 -39 21 -54 22 -14
31 -15 53 -5 24 11 29 10 45 -11 10 -13 18 -26 18 -30 0 -16 42 -7 70 14 33
24 37 43 18 83 -10 23 -10 28 5 36 53 30 36 91 -30 108 -87 22 -119 23 -141 4z
m153 -35 c43 -19 32 -46 -32 -74 -32 -14 -70 -37 -85 -51 -31 -30 -62 -27 -66
6 -6 40 16 76 59 95 21 10 39 22 39 27 0 13 54 11 85 -3z m-10 -127 c9 -18 11
-32 5 -36 -11 -7 -42 49 -33 59 10 9 11 8 28 -23z m-30 -17 c15 -23 15 -28 3
-41 -13 -12 -17 -11 -32 12 -17 26 -16 55 3 55 5 0 16 -12 26 -26z"/>
<path d="M1690 2230 c-25 -25 -25 -42 -2 -63 24 -22 45 -21 65 1 22 24 21 45
-1 65 -24 22 -38 21 -62 -3z"/>
<path d="M817 2585 c-59 -29 -144 -78 -190 -108 -89 -58 -207 -155 -207 -169
0 -5 30 17 68 49 89 77 182 138 325 213 64 34 117 64 117 66 0 6 2 7 -113 -51z"/>
<path d="M1803 2553 c31 -32 63 -67 71 -78 9 -11 16 -15 16 -8 0 15 -118 143
-133 143 -6 0 15 -26 46 -57z"/>
<path d="M1840 2555 c7 -9 15 -13 17 -11 7 7 -7 26 -19 26 -6 0 -6 -6 2 -15z"/>
<path d="M181 2104 c0 -11 3 -14 6 -6 3 7 2 16 -1 19 -3 4 -6 -2 -5 -13z"/>
<path d="M2135 1970 c-3 -5 -1 -10 4 -10 6 0 11 5 11 10 0 6 -2 10 -4 10 -3 0
-8 -4 -11 -10z"/>
<path d="M1940 1660 c0 -5 5 -10 11 -10 5 0 7 5 4 10 -3 6 -8 10 -11 10 -2 0
-4 -4 -4 -10z"/>
<path d="M1695 1573 c-81 -60 -177 -116 -259 -149 -37 -16 -63 -30 -56 -32 34
-12 401 202 380 221 -3 2 -32 -16 -65 -40z"/>
<path d="M420 1350 c0 -5 5 -10 11 -10 5 0 7 5 4 10 -3 6 -8 10 -11 10 -2 0
-4 -4 -4 -10z"/>
<path d="M405 1320 c3 -5 11 -10 16 -10 6 0 7 5 4 10 -3 6 -11 10 -16 10 -6 0
-7 -4 -4 -10z"/>
<path d="M1241 1214 c0 -11 3 -14 6 -6 3 7 2 16 -1 19 -3 4 -6 -2 -5 -13z"/>
<path d="M2380 1740 c-13 -8 -12 -10 3 -10 9 0 17 5 17 10 0 12 -1 12 -20 0z"/>
<path d="M2182 1730 c7 -10 14 -18 15 -16 6 6 -9 36 -18 36 -5 0 -4 -9 3 -20z"/>
<path d="M210 1465 c15 -18 36 -19 46 -3 5 8 2 9 -9 5 -9 -3 -19 -2 -22 3 -4
6 -11 10 -17 10 -7 0 -6 -6 2 -15z"/>
<path d="M2120 1671 c0 -5 5 -13 10 -16 6 -3 10 -2 10 4 0 5 -4 13 -10 16 -5
3 -10 2 -10 -4z"/>
<path d="M2416 1438 c38 -46 83 -145 90 -200 4 -27 11 -48 15 -48 10 0 6 22
-17 106 -14 53 -88 174 -106 174 -5 0 3 -15 18 -32z"/>
<path d="M1930 1043 c1 -15 39 -58 46 -51 8 9 -22 58 -36 58 -6 0 -10 -3 -10
-7z"/>
<path d="M1620 976 c0 -9 5 -16 10 -16 6 0 10 4 10 9 0 6 -4 13 -10 16 -5 3
-10 -1 -10 -9z"/>
<path d="M2020 906 c0 -15 18 -31 26 -23 7 7 -7 37 -17 37 -5 0 -9 -6 -9 -14z"/>
<path d="M652 890 c0 -14 2 -19 5 -12 2 6 2 18 0 25 -3 6 -5 1 -5 -13z"/>
<path d="M1641 896 c-7 -8 -28 -14 -48 -13 -55 2 -74 -29 -71 -112 l3 -66 65
3 c84 5 104 21 96 77 -4 22 -6 59 -6 83 1 44 -16 56 -39 28z m-46 -53 c-4 -10
-8 -24 -8 -30 0 -7 -6 -13 -14 -13 -16 0 -17 -22 0 -39 10 -11 9 -13 -3 -9
-26 8 -35 53 -16 82 19 30 53 37 41 9z m63 -86 c-10 -19 -35 -33 -44 -25 -3 3
6 21 18 40 18 28 24 32 29 19 4 -9 2 -24 -3 -34z"/>
<path d="M1420 840 c0 -5 5 -10 10 -10 6 0 10 5 10 10 0 6 -4 10 -10 10 -5 0
-10 -4 -10 -10z"/>
<path d="M1770 800 c0 -5 7 -10 15 -10 8 0 15 5 15 10 0 6 -7 10 -15 10 -8 0
-15 -4 -15 -10z"/>
<path d="M2110 756 c0 -15 18 -31 26 -23 7 7 -7 37 -17 37 -5 0 -9 -6 -9 -14z"/>
<path d="M1195 670 c-3 -5 -1 -10 4 -10 6 0 11 5 11 10 0 6 -2 10 -4 10 -3 0
-8 -4 -11 -10z"/>
<path d="M1566 661 c-4 -7 -5 -15 -2 -18 9 -9 19 4 14 18 -4 11 -6 11 -12 0z"/>
<path d="M2176 652 c-8 -13 3 -42 15 -42 11 0 11 21 0 39 -5 8 -11 9 -15 3z"/>
<path d="M2220 526 c0 -8 5 -18 10 -21 6 -3 10 3 10 14 0 12 -4 21 -10 21 -5
0 -10 -6 -10 -14z"/>
<path d="M2030 1530 c0 -5 5 -10 11 -10 5 0 7 5 4 10 -3 6 -8 10 -11 10 -2 0
-4 -4 -4 -10z"/>
<path d="M1875 1426 c-13 -20 -14 -29 -5 -46 15 -27 57 -24 77 7 13 19 12 24
-6 42 -28 28 -47 26 -66 -3z m55 -21 c0 -19 -20 -29 -32 -17 -15 15 -2 43 17
36 8 -3 15 -12 15 -19z"/>
<path d="M1722 1308 c-39 -39 17 -100 58 -63 34 31 20 75 -25 75 -12 0 -26 -5
-33 -12z m52 -23 c3 -9 -1 -18 -10 -22 -19 -7 -39 11 -30 26 10 16 33 13 40
-4z"/>
<path d="M1481 1186 c-7 -8 -11 -27 -9 -43 2 -23 8 -29 35 -31 24 -2 34 2 43
18 23 44 -39 93 -69 56z m35 -30 c9 -9 10 -17 4 -21 -14 -8 -30 3 -30 21 0 18
8 18 26 0z"/>
<path d="M1230 1055 c0 -8 4 -15 10 -15 5 0 7 7 4 15 -4 8 -8 15 -10 15 -2 0
-4 -7 -4 -15z"/>
<path d="M1140 1041 c0 -6 4 -13 10 -16 6 -3 7 1 4 9 -7 18 -14 21 -14 7z"/>
<path d="M1035 1021 c-3 -5 -1 -12 5 -16 5 -3 10 1 10 9 0 18 -6 21 -15 7z"/>
<path d="M940 1017 c0 -7 7 -22 15 -33 13 -17 14 -16 4 14 -11 33 -19 41 -19
19z"/>
<path d="M830 1009 c0 -5 5 -7 10 -4 6 3 10 8 10 11 0 2 -4 4 -10 4 -5 0 -10
-5 -10 -11z"/>
</g>
</svg>
